<svg id="_x31__x2C_5" height="512" viewBox="0 0 36 36" width="512" xmlns="http://www.w3.org/2000/svg"><path d="m4.167 27.623c0-6.917-3.583-11.667-3.583-15s1.916-10.333 17.249-10.333 17.583 9.417 17.583 13.083c.001 17.167-31.249 24.5-31.249 12.25z" fill="#efefef"/><path d="m32.5 5c-.827 0-1.5-.673-1.5-1.5s.673-1.5 1.5-1.5 1.5.673 1.5 1.5-.673 1.5-1.5 1.5zm0-2c-.275 0-.5.225-.5.5s.225.5.5.5.5-.225.5-.5-.225-.5-.5-.5z" fill="#a4afc1"/><path d="m29.25 24.25v-12.5c0-1.105-.895-2-2-2h-18.5c-1.105 0-2 .895-2 2v12.5c0 1.105.895 2 2 2h18.5c1.105 0 2-.895 2-2z" fill="#f3f3f1"/><path d="m6.75 21.25h6.5c1.105 0 2-.895 2-2v-2.5c0-1.105-.895-2-2-2h-6.5z" fill="#2fdf84"/><circle cx="23.5" cy="23.5" fill="#2fdf84" r="5.75"/><path d="m9 24.25v-12.5c0-1.105.895-2 2-2h-2.25c-1.105 0-2 .895-2 2v12.5c0 1.105.895 2 2 2h2.25c-1.105 0-2-.895-2-2z" fill="#d5dbe1"/><path d="m6.75 14.75h2.25v6.5h-2.25z" fill="#00b871"/><path d="m20 23.5c0-2.79 1.988-5.115 4.625-5.638-.364-.072-.74-.112-1.125-.112-3.176 0-5.75 2.574-5.75 5.75s2.574 5.75 5.75 5.75c.385 0 .761-.039 1.125-.112-2.637-.523-4.625-2.848-4.625-5.638z" fill="#00b871"/><path d="m23.5 30c-3.584 0-6.5-2.916-6.5-6.5s2.916-6.5 6.5-6.5 6.5 2.916 6.5 6.5-2.916 6.5-6.5 6.5zm0-11.5c-2.757 0-5 2.243-5 5s2.243 5 5 5 5-2.243 5-5-2.243-5-5-5z"/><path d="m22.5 26.25c-.198 0-.39-.079-.53-.22l-1.75-1.75 1.061-1.061 1.181 1.181 2.723-3.142 1.133.982-3.25 3.75c-.136.157-.332.251-.54.259-.01.001-.019.001-.028.001z"/><path d="m15.25 27h-6.5c-1.517 0-2.75-1.233-2.75-2.75v-12.5c0-1.517 1.233-2.75 2.75-2.75h18.5c1.517 0 2.75 1.233 2.75 2.75v4.5h-1.5v-4.5c0-.689-.561-1.25-1.25-1.25h-18.5c-.689 0-1.25.561-1.25 1.25v12.5c0 .689.561 1.25 1.25 1.25h6.5z"/><path d="m13.25 22h-6.5c-.414 0-.75-.336-.75-.75v-6.5c0-.414.336-.75.75-.75h6.5c1.517 0 2.75 1.233 2.75 2.75v2.5c0 1.517-1.233 2.75-2.75 2.75zm-5.75-1.5h5.75c.689 0 1.25-.561 1.25-1.25v-2.5c0-.689-.561-1.25-1.25-1.25h-5.75z"/><circle cx="11" cy="18" r="1"/></svg>